<svg width="194" height="71" viewBox="0 0 194 71" fill="none" xmlns="http://www.w3.org/2000/svg">
<path d="M17.7817 46.6051C17.1417 46.6051 16.5217 46.5518 15.9217 46.4451C15.3217 46.3385 14.7617 46.1785 14.2417 45.9651C13.7351 45.7385 13.2751 45.4651 12.8617 45.1451C12.7284 45.0518 12.6351 44.9451 12.5817 44.8251C12.5417 44.6918 12.5351 44.5718 12.5617 44.4651C12.6017 44.3451 12.6617 44.2451 12.7417 44.1651C12.8351 44.0851 12.9417 44.0451 13.0617 44.0451C13.1817 44.0318 13.3084 44.0718 13.4417 44.1651C14.0551 44.6185 14.7017 44.9518 15.3817 45.1651C16.0751 45.3785 16.8751 45.4851 17.7817 45.4851C19.0484 45.4851 19.9951 45.2385 20.6217 44.7451C21.2617 44.2518 21.5817 43.6051 21.5817 42.8051C21.5817 42.1385 21.3484 41.6185 20.8817 41.2451C20.4284 40.8718 19.6751 40.5785 18.6217 40.3651L16.6017 39.9451C15.3351 39.6918 14.3951 39.2651 13.7817 38.6651C13.1684 38.0651 12.8617 37.2651 12.8617 36.2651C12.8617 35.6518 12.9817 35.0985 13.2217 34.6051C13.4617 34.0985 13.8017 33.6651 14.2417 33.3051C14.6817 32.9451 15.2017 32.6718 15.8017 32.4851C16.4151 32.2851 17.0884 32.1851 17.8217 32.1851C18.6884 32.1851 19.4817 32.3051 20.2017 32.5451C20.9351 32.7851 21.6017 33.1651 22.2017 33.6851C22.3217 33.7785 22.4017 33.8918 22.4417 34.0251C22.4817 34.1451 22.4817 34.2651 22.4417 34.3851C22.4017 34.4918 22.3417 34.5785 22.2617 34.6451C22.1817 34.7118 22.0817 34.7518 21.9617 34.7651C21.8417 34.7651 21.7151 34.7118 21.5817 34.6051C21.0217 34.1518 20.4351 33.8251 19.8217 33.6251C19.2217 33.4118 18.5551 33.3051 17.8217 33.3051C17.0751 33.3051 16.4217 33.4251 15.8617 33.6651C15.3151 33.9051 14.8884 34.2451 14.5817 34.6851C14.2751 35.1251 14.1217 35.6451 14.1217 36.2451C14.1217 36.9385 14.3351 37.4918 14.7617 37.9051C15.1884 38.3185 15.8751 38.6185 16.8217 38.8051L18.8617 39.2251C20.2084 39.5051 21.2084 39.9251 21.8617 40.4851C22.5151 41.0318 22.8417 41.7851 22.8417 42.7451C22.8417 43.3185 22.7217 43.8451 22.4817 44.3251C22.2551 44.7918 21.9217 45.1985 21.4817 45.5451C21.0417 45.8918 20.5084 46.1585 19.8817 46.3451C19.2684 46.5185 18.5684 46.6051 17.7817 46.6051ZM31.9302 46.6051C31.0369 46.6051 30.2435 46.4851 29.5502 46.2451C28.8569 46.0051 28.2769 45.6451 27.8102 45.1651C27.3569 44.6851 27.0102 44.0918 26.7702 43.3851C26.5435 42.6785 26.4302 41.8651 26.4302 40.9451V32.8451C26.4302 32.6318 26.4835 32.4785 26.5902 32.3851C26.6969 32.2785 26.8435 32.2251 27.0302 32.2251C27.2302 32.2251 27.3835 32.2785 27.4902 32.3851C27.5969 32.4785 27.6502 32.6318 27.6502 32.8451V40.8451C27.6502 42.4051 28.0102 43.5718 28.7302 44.3451C29.4635 45.1051 30.5302 45.4851 31.9302 45.4851C33.3435 45.4851 34.4102 45.1051 35.1302 44.3451C35.8502 43.5718 36.2102 42.4051 36.2102 40.8451V32.8451C36.2102 32.6318 36.2635 32.4785 36.3702 32.3851C36.4769 32.2785 36.6302 32.2251 36.8302 32.2251C37.0169 32.2251 37.1635 32.2785 37.2702 32.3851C37.3769 32.4785 37.4302 32.6318 37.4302 32.8451V40.9451C37.4302 42.1718 37.2235 43.2118 36.8102 44.0651C36.3969 44.9051 35.7769 45.5385 34.9502 45.9651C34.1369 46.3918 33.1302 46.6051 31.9302 46.6051ZM42.6028 46.5651C42.4162 46.5651 42.2695 46.5118 42.1628 46.4051C42.0562 46.2851 42.0028 46.1251 42.0028 45.9251V32.9851C42.0028 32.7718 42.0562 32.6118 42.1628 32.5051C42.2828 32.3985 42.4362 32.3451 42.6228 32.3451H47.3228C48.8162 32.3451 49.9628 32.7051 50.7628 33.4251C51.5628 34.1451 51.9628 35.1718 51.9628 36.5051C51.9628 37.8251 51.5628 38.8518 50.7628 39.5851C49.9628 40.3051 48.8162 40.6651 47.3228 40.6651H43.2228V45.9251C43.2228 46.1251 43.1695 46.2851 43.0628 46.4051C42.9695 46.5118 42.8162 46.5651 42.6028 46.5651ZM43.2228 39.5851H47.2228C48.3828 39.5851 49.2562 39.3251 49.8428 38.8051C50.4295 38.2851 50.7228 37.5185 50.7228 36.5051C50.7228 35.4918 50.4295 34.7251 49.8428 34.2051C49.2562 33.6718 48.3828 33.4051 47.2228 33.4051H43.2228V39.5851ZM61.0475 46.6051C59.7675 46.6051 58.6542 46.3118 57.7075 45.7251C56.7609 45.1385 56.0275 44.3051 55.5075 43.2251C55.0009 42.1451 54.7475 40.8651 54.7475 39.3851C54.7475 38.2651 54.8875 37.2651 55.1675 36.3851C55.4609 35.4918 55.8809 34.7385 56.4275 34.1251C56.9742 33.4985 57.6342 33.0185 58.4075 32.6851C59.1942 32.3518 60.0742 32.1851 61.0475 32.1851C62.3542 32.1851 63.4809 32.4785 64.4275 33.0651C65.3742 33.6385 66.1009 34.4651 66.6075 35.5451C67.1142 36.6118 67.3675 37.8851 67.3675 39.3651C67.3675 40.4851 67.2209 41.4918 66.9275 42.3851C66.6342 43.2785 66.2142 44.0385 65.6675 44.6651C65.1209 45.2918 64.4542 45.7718 63.6675 46.1051C62.8942 46.4385 62.0209 46.6051 61.0475 46.6051ZM61.0475 45.4851C62.1142 45.4851 63.0209 45.2451 63.7675 44.7651C64.5142 44.2851 65.0809 43.5918 65.4675 42.6851C65.8675 41.7785 66.0675 40.6785 66.0675 39.3851C66.0675 37.4518 65.6275 35.9585 64.7475 34.9051C63.8809 33.8385 62.6475 33.3051 61.0475 33.3051C59.9942 33.3051 59.0942 33.5451 58.3475 34.0251C57.6009 34.5051 57.0275 35.1985 56.6275 36.1051C56.2409 37.0118 56.0475 38.1051 56.0475 39.3851C56.0475 41.3051 56.4875 42.8051 57.3675 43.8851C58.2475 44.9518 59.4742 45.4851 61.0475 45.4851ZM72.0833 46.5651C71.8966 46.5651 71.75 46.5118 71.6433 46.4051C71.5366 46.2851 71.4833 46.1251 71.4833 45.9251V32.9851C71.4833 32.7718 71.5366 32.6118 71.6433 32.5051C71.7633 32.3985 71.9166 32.3451 72.1033 32.3451H76.8033C78.2966 32.3451 79.4433 32.6918 80.2433 33.3851C81.0433 34.0785 81.4433 35.0651 81.4433 36.3451C81.4433 37.1718 81.2633 37.8851 80.9033 38.4851C80.5433 39.0718 80.01 39.5185 79.3033 39.8251C78.61 40.1318 77.7766 40.2851 76.8033 40.2851L77.0233 40.0251H77.3033C77.81 40.0251 78.25 40.1585 78.6233 40.4251C79.01 40.6918 79.3566 41.1251 79.6633 41.7251L81.7833 45.6651C81.8766 45.8118 81.9166 45.9585 81.9033 46.1051C81.9033 46.2385 81.8566 46.3518 81.7633 46.4451C81.67 46.5251 81.55 46.5651 81.4033 46.5651C81.23 46.5651 81.0833 46.5251 80.9633 46.4451C80.8566 46.3651 80.7633 46.2518 80.6833 46.1051L78.4433 41.9251C78.0966 41.2851 77.71 40.8651 77.2833 40.6651C76.8566 40.4518 76.2833 40.3451 75.5633 40.3451H72.7033V45.9251C72.7033 46.1251 72.65 46.2851 72.5433 46.4051C72.45 46.5118 72.2966 46.5651 72.0833 46.5651ZM72.7033 39.3051H76.6433C77.83 39.3051 78.7166 39.0585 79.3033 38.5651C79.9033 38.0585 80.2033 37.3185 80.2033 36.3451C80.2033 35.3851 79.9033 34.6585 79.3033 34.1651C78.7166 33.6585 77.83 33.4051 76.6433 33.4051H72.7033V39.3051ZM89.4153 46.5651C89.2153 46.5651 89.062 46.5118 88.9553 46.4051C88.8487 46.2851 88.7953 46.1251 88.7953 45.9251V33.4451H84.0153C83.8287 33.4451 83.682 33.3918 83.5753 33.2851C83.4687 33.1785 83.4153 33.0451 83.4153 32.8851C83.4153 32.7118 83.4687 32.5785 83.5753 32.4851C83.682 32.3918 83.8287 32.3451 84.0153 32.3451H94.8353C95.022 32.3451 95.162 32.3918 95.2553 32.4851C95.362 32.5785 95.4153 32.7118 95.4153 32.8851C95.4153 33.0585 95.362 33.1985 95.2553 33.3051C95.162 33.3985 95.022 33.4451 94.8353 33.4451H90.0353V45.9251C90.0353 46.1251 89.982 46.2851 89.8753 46.4051C89.782 46.5118 89.6287 46.5651 89.4153 46.5651ZM102.505 46.5651C102.305 46.5651 102.152 46.5118 102.045 46.4051C101.939 46.2851 101.885 46.1251 101.885 45.9251V33.4451H97.1052C96.9185 33.4451 96.7719 33.3918 96.6652 33.2851C96.5585 33.1785 96.5052 33.0451 96.5052 32.8851C96.5052 32.7118 96.5585 32.5785 96.6652 32.4851C96.7719 32.3918 96.9185 32.3451 97.1052 32.3451H107.925C108.112 32.3451 108.252 32.3918 108.345 32.4851C108.452 32.5785 108.505 32.7118 108.505 32.8851C108.505 33.0585 108.452 33.1985 108.345 33.3051C108.252 33.3985 108.112 33.4451 107.925 33.4451H103.125V45.9251C103.125 46.1251 103.072 46.2851 102.965 46.4051C102.872 46.5118 102.719 46.5651 102.505 46.5651ZM111.96 46.4451C111.747 46.4451 111.58 46.3851 111.46 46.2651C111.34 46.1451 111.28 45.9718 111.28 45.7451V33.0451C111.28 32.8185 111.34 32.6451 111.46 32.5251C111.58 32.4051 111.747 32.3451 111.96 32.3451H119.52C119.707 32.3451 119.847 32.3918 119.94 32.4851C120.034 32.5785 120.08 32.7051 120.08 32.8651C120.08 33.0518 120.034 33.1918 119.94 33.2851C119.847 33.3651 119.707 33.4051 119.52 33.4051H112.48V38.7651H119.12C119.307 38.7651 119.447 38.8118 119.54 38.9051C119.634 38.9851 119.68 39.1118 119.68 39.2851C119.68 39.4585 119.634 39.5918 119.54 39.6851C119.447 39.7785 119.307 39.8251 119.12 39.8251H112.48V45.3851H119.52C119.707 45.3851 119.847 45.4318 119.94 45.5251C120.034 45.6051 120.08 45.7318 120.08 45.9051C120.08 46.0785 120.034 46.2118 119.94 46.3051C119.847 46.3985 119.707 46.4451 119.52 46.4451H111.96ZM130.463 46.4451C130.276 46.4451 130.123 46.3918 130.003 46.2851C129.896 46.1651 129.843 46.0051 129.843 45.8051V32.8851C129.843 32.6718 129.896 32.5118 130.003 32.4051C130.109 32.2985 130.256 32.2451 130.443 32.2451C130.643 32.2451 130.796 32.2985 130.903 32.4051C131.009 32.5118 131.063 32.6718 131.063 32.8851V45.3451H137.943C138.143 45.3451 138.289 45.3918 138.383 45.4851C138.489 45.5785 138.543 45.7118 138.543 45.8851C138.543 46.0718 138.489 46.2118 138.383 46.3051C138.289 46.3985 138.143 46.4451 137.943 46.4451H130.463ZM140.577 46.5651C140.404 46.5651 140.264 46.5251 140.157 46.4451C140.064 46.3785 140.01 46.2785 139.997 46.1451C139.997 46.0118 140.03 45.8651 140.097 45.7051L145.717 32.7851C145.81 32.5851 145.924 32.4451 146.057 32.3651C146.19 32.2718 146.324 32.2251 146.457 32.2251C146.617 32.2251 146.757 32.2718 146.877 32.3651C147.01 32.4451 147.117 32.5851 147.197 32.7851L152.817 45.7051C152.897 45.8651 152.93 46.0118 152.917 46.1451C152.917 46.2785 152.87 46.3785 152.777 46.4451C152.697 46.5251 152.57 46.5651 152.397 46.5651C152.21 46.5651 152.057 46.5185 151.937 46.4251C151.83 46.3185 151.737 46.1785 151.657 46.0051L150.117 42.3851L150.777 42.6851H142.117L142.797 42.3851L141.257 46.0051C141.177 46.2051 141.077 46.3518 140.957 46.4451C140.85 46.5251 140.724 46.5651 140.577 46.5651ZM146.437 33.8651L143.037 41.8651L142.577 41.6251H150.317L149.897 41.8651L146.477 33.8651H146.437ZM160.793 46.6051C160.153 46.6051 159.533 46.5518 158.933 46.4451C158.333 46.3385 157.773 46.1785 157.253 45.9651C156.747 45.7385 156.287 45.4651 155.873 45.1451C155.74 45.0518 155.647 44.9451 155.593 44.8251C155.553 44.6918 155.547 44.5718 155.573 44.4651C155.613 44.3451 155.673 44.2451 155.753 44.1651C155.847 44.0851 155.953 44.0451 156.073 44.0451C156.193 44.0318 156.32 44.0718 156.453 44.1651C157.067 44.6185 157.713 44.9518 158.393 45.1651C159.087 45.3785 159.887 45.4851 160.793 45.4851C162.06 45.4851 163.007 45.2385 163.633 44.7451C164.273 44.2518 164.593 43.6051 164.593 42.8051C164.593 42.1385 164.36 41.6185 163.893 41.2451C163.44 40.8718 162.687 40.5785 161.633 40.3651L159.613 39.9451C158.347 39.6918 157.407 39.2651 156.793 38.6651C156.18 38.0651 155.873 37.2651 155.873 36.2651C155.873 35.6518 155.993 35.0985 156.233 34.6051C156.473 34.0985 156.813 33.6651 157.253 33.3051C157.693 32.9451 158.213 32.6718 158.813 32.4851C159.427 32.2851 160.1 32.1851 160.833 32.1851C161.7 32.1851 162.493 32.3051 163.213 32.5451C163.947 32.7851 164.613 33.1651 165.213 33.6851C165.333 33.7785 165.413 33.8918 165.453 34.0251C165.493 34.1451 165.493 34.2651 165.453 34.3851C165.413 34.4918 165.353 34.5785 165.273 34.6451C165.193 34.7118 165.093 34.7518 164.973 34.7651C164.853 34.7651 164.727 34.7118 164.593 34.6051C164.033 34.1518 163.447 33.8251 162.833 33.6251C162.233 33.4118 161.567 33.3051 160.833 33.3051C160.087 33.3051 159.433 33.4251 158.873 33.6651C158.327 33.9051 157.9 34.2451 157.593 34.6851C157.287 35.1251 157.133 35.6451 157.133 36.2451C157.133 36.9385 157.347 37.4918 157.773 37.9051C158.2 38.3185 158.887 38.6185 159.833 38.8051L161.873 39.2251C163.22 39.5051 164.22 39.9251 164.873 40.4851C165.527 41.0318 165.853 41.7851 165.853 42.7451C165.853 43.3185 165.733 43.8451 165.493 44.3251C165.267 44.7918 164.933 45.1985 164.493 45.5451C164.053 45.8918 163.52 46.1585 162.893 46.3451C162.28 46.5185 161.58 46.6051 160.793 46.6051ZM170.222 46.4451C170.009 46.4451 169.842 46.3851 169.722 46.2651C169.602 46.1451 169.542 45.9718 169.542 45.7451V33.0451C169.542 32.8185 169.602 32.6451 169.722 32.5251C169.842 32.4051 170.009 32.3451 170.222 32.3451H177.782C177.969 32.3451 178.109 32.3918 178.202 32.4851C178.295 32.5785 178.342 32.7051 178.342 32.8651C178.342 33.0518 178.295 33.1918 178.202 33.2851C178.109 33.3651 177.969 33.4051 177.782 33.4051H170.742V38.7651H177.382C177.569 38.7651 177.709 38.8118 177.802 38.9051C177.895 38.9851 177.942 39.1118 177.942 39.2851C177.942 39.4585 177.895 39.5918 177.802 39.6851C177.709 39.7785 177.569 39.8251 177.382 39.8251H170.742V45.3851H177.782C177.969 45.3851 178.109 45.4318 178.202 45.5251C178.295 45.6051 178.342 45.7318 178.342 45.9051C178.342 46.0785 178.295 46.2118 178.202 46.3051C178.109 46.3985 177.969 46.4451 177.782 46.4451H170.222ZM182.665 46.5651C182.479 46.5651 182.332 46.5118 182.225 46.4051C182.119 46.2851 182.065 46.1251 182.065 45.9251V32.9851C182.065 32.7718 182.119 32.6118 182.225 32.5051C182.345 32.3985 182.499 32.3451 182.685 32.3451H187.385C188.879 32.3451 190.025 32.6918 190.825 33.3851C191.625 34.0785 192.025 35.0651 192.025 36.3451C192.025 37.1718 191.845 37.8851 191.485 38.4851C191.125 39.0718 190.592 39.5185 189.885 39.8251C189.192 40.1318 188.359 40.2851 187.385 40.2851L187.605 40.0251H187.885C188.392 40.0251 188.832 40.1585 189.205 40.4251C189.592 40.6918 189.939 41.1251 190.245 41.7251L192.365 45.6651C192.459 45.8118 192.499 45.9585 192.485 46.1051C192.485 46.2385 192.439 46.3518 192.345 46.4451C192.252 46.5251 192.132 46.5651 191.985 46.5651C191.812 46.5651 191.665 46.5251 191.545 46.4451C191.439 46.3651 191.345 46.2518 191.265 46.1051L189.025 41.9251C188.679 41.2851 188.292 40.8651 187.865 40.6651C187.439 40.4518 186.865 40.3451 186.145 40.3451H183.285V45.9251C183.285 46.1251 183.232 46.2851 183.125 46.4051C183.032 46.5118 182.879 46.5651 182.665 46.5651ZM183.285 39.3051H187.225C188.412 39.3051 189.299 39.0585 189.885 38.5651C190.485 38.0585 190.785 37.3185 190.785 36.3451C190.785 35.3851 190.485 34.6585 189.885 34.1651C189.299 33.6585 188.412 33.4051 187.225 33.4051H183.285V39.3051Z" fill="black"/>
<path d="M28.346 61.8354L15.4589 16.2712L61.3624 27.8928L28.346 61.8354Z" stroke="black"/>
</svg>
