<svg width="261" height="197" viewBox="0 0 261 197" fill="none" xmlns="http://www.w3.org/2000/svg">
<g filter="url(#filter0_dddddd_49_18)">
<path d="M57.0492 64.3084L52.8033 26.6368L87.5497 41.7947L57.0492 64.3084Z" stroke="black"/>
</g>
<path d="M38.8581 49.3451H39.6381C39.8247 50.6118 40.3314 51.6118 41.1581 52.3451C41.9847 53.0651 43.0047 53.4251 44.2181 53.4251C44.7114 53.4251 45.1647 53.3651 45.5781 53.2451C45.9914 53.1251 46.3447 52.9585 46.6381 52.7451C46.9314 52.5185 47.1581 52.2585 47.3181 51.9651C47.4781 51.6585 47.5581 51.3185 47.5581 50.9451C47.5581 50.6251 47.5047 50.3518 47.3981 50.1251C47.3047 49.8851 47.1181 49.6585 46.8381 49.4451C46.5581 49.2185 46.1714 48.9918 45.6781 48.7651C45.1981 48.5385 44.5714 48.2785 43.7981 47.9851C42.2381 47.3851 41.0847 46.6918 40.3381 45.9051C39.5914 45.1051 39.2181 44.1651 39.2181 43.0851C39.2181 42.4585 39.3381 41.8851 39.5781 41.3651C39.8181 40.8451 40.1514 40.3985 40.5781 40.0251C41.0181 39.6518 41.5381 39.3651 42.1381 39.1651C42.7514 38.9518 43.4247 38.8451 44.1581 38.8451C44.8381 38.8451 45.4781 38.9518 46.0781 39.1651C46.6781 39.3785 47.2714 39.6985 47.8581 40.1251L48.2181 39.1251H48.6981L48.9181 43.4451H48.1381C47.8181 42.3518 47.3181 41.5185 46.6381 40.9451C45.9581 40.3585 45.1714 40.0651 44.2781 40.0651C43.4514 40.0651 42.7781 40.2718 42.2581 40.6851C41.7514 41.0851 41.4981 41.6051 41.4981 42.2451C41.4981 42.5251 41.5447 42.7785 41.6381 43.0051C41.7314 43.2185 41.9047 43.4251 42.1581 43.6251C42.4114 43.8251 42.7581 44.0318 43.1981 44.2451C43.6381 44.4451 44.2047 44.6718 44.8981 44.9251C45.8314 45.2851 46.6247 45.6518 47.2781 46.0251C47.9447 46.3851 48.4847 46.7785 48.8981 47.2051C49.3247 47.6185 49.6381 48.0585 49.8381 48.5251C50.0381 48.9918 50.1381 49.5051 50.1381 50.0651C50.1381 50.7451 49.9914 51.3651 49.6981 51.9251C49.4047 52.4851 48.9914 52.9651 48.4581 53.3651C47.9381 53.7651 47.3114 54.0785 46.5781 54.3051C45.8581 54.5318 45.0581 54.6451 44.1781 54.6451C43.3781 54.6451 42.6581 54.5385 42.0181 54.3251C41.3781 54.0985 40.7181 53.7385 40.0381 53.2451L39.6381 54.4451H39.1581L38.8581 49.3451ZM67.1798 48.2451C67.1798 49.3785 67.0531 50.3518 66.7998 51.1651C66.5598 51.9651 66.1798 52.6251 65.6598 53.1451C65.1398 53.6651 64.4665 54.0451 63.6398 54.2851C62.8265 54.5251 61.8465 54.6451 60.6998 54.6451C58.5531 54.6451 56.9798 54.1985 55.9798 53.3051C54.9931 52.3985 54.4998 50.9585 54.4998 48.9851V43.5051C54.4998 42.9851 54.4931 42.5518 54.4798 42.2051C54.4665 41.8451 54.4465 41.5451 54.4198 41.3051C54.3931 41.0651 54.3531 40.8718 54.2998 40.7251C54.2598 40.5651 54.2065 40.4318 54.1398 40.3251C54.0198 40.1385 53.8465 40.0118 53.6198 39.9451C53.3931 39.8785 53.0465 39.8451 52.5798 39.8451V39.0451H59.7598V39.8451C59.1998 39.8451 58.7865 39.8785 58.5198 39.9451C58.2531 39.9985 58.0465 40.1118 57.8998 40.2851C57.8065 40.3918 57.7265 40.5251 57.6598 40.6851C57.6065 40.8318 57.5598 41.0318 57.5198 41.2851C57.4931 41.5251 57.4731 41.8251 57.4598 42.1851C57.4465 42.5451 57.4398 42.9851 57.4398 43.5051V48.7451C57.4398 50.2651 57.7598 51.3918 58.3998 52.1251C59.0531 52.8451 60.0531 53.2051 61.3998 53.2051C64.1465 53.2051 65.5198 51.6785 65.5198 48.6251V44.0051C65.5198 43.4451 65.5065 42.9651 65.4798 42.5651C65.4665 42.1651 65.4331 41.8251 65.3798 41.5451C65.3398 41.2651 65.2798 41.0318 65.1998 40.8451C65.1331 40.6585 65.0465 40.5051 64.9398 40.3851C64.7531 40.1985 64.5131 40.0651 64.2198 39.9851C63.9265 39.8918 63.5198 39.8451 62.9998 39.8451V39.0451H69.4798V39.8451C68.9865 39.8451 68.6065 39.8851 68.3398 39.9651C68.0731 40.0318 67.8665 40.1585 67.7198 40.3451C67.6131 40.4651 67.5265 40.6251 67.4598 40.8251C67.3931 41.0118 67.3398 41.2518 67.2998 41.5451C67.2598 41.8251 67.2265 42.1651 67.1998 42.5651C67.1865 42.9651 67.1798 43.4451 67.1798 44.0051V48.2451ZM84.6375 43.3251C84.6375 44.7651 84.0775 45.8651 82.9575 46.6251C81.8375 47.3718 80.2108 47.7451 78.0775 47.7451H76.3775V51.2651C76.3775 51.7718 76.4108 52.1851 76.4775 52.5051C76.5441 52.8118 76.6841 53.0518 76.8975 53.2251C77.1108 53.3985 77.4041 53.5118 77.7775 53.5651C78.1508 53.6185 78.6508 53.6451 79.2775 53.6451V54.4451H71.3375V53.6451C71.7775 53.6318 72.1375 53.5918 72.4175 53.5251C72.6975 53.4585 72.9108 53.3451 73.0575 53.1851C73.2041 53.0251 73.3041 52.7985 73.3575 52.5051C73.4108 52.2118 73.4375 51.8318 73.4375 51.3651V42.1251C73.4375 41.6585 73.4108 41.2851 73.3575 41.0051C73.3175 40.7118 73.2308 40.4851 73.0975 40.3251C72.9641 40.1518 72.7708 40.0385 72.5175 39.9851C72.2775 39.9185 71.9575 39.8718 71.5575 39.8451V39.0451H78.4775C80.5041 39.0451 82.0375 39.4051 83.0775 40.1251C84.1175 40.8451 84.6375 41.9118 84.6375 43.3251ZM76.3775 46.5451H77.6775C78.9708 46.5451 79.9175 46.2851 80.5175 45.7651C81.1175 45.2451 81.4175 44.4251 81.4175 43.3051C81.4175 42.3051 81.1641 41.5318 80.6575 40.9851C80.1508 40.4385 79.3575 40.1651 78.2775 40.1651H76.7375C76.4975 40.1651 76.3775 40.2785 76.3775 40.5051V46.5451ZM95.4134 38.8451C96.6134 38.8451 97.7334 39.0518 98.7734 39.4651C99.8134 39.8785 100.713 40.4451 101.473 41.1651C102.247 41.8851 102.853 42.7318 103.293 43.7051C103.733 44.6785 103.953 45.7318 103.953 46.8651C103.953 47.9451 103.727 48.9585 103.273 49.9051C102.833 50.8518 102.227 51.6785 101.453 52.3851C100.693 53.0785 99.7934 53.6318 98.7534 54.0451C97.7134 54.4451 96.6001 54.6451 95.4134 54.6451C94.2267 54.6451 93.1134 54.4451 92.0734 54.0451C91.0334 53.6318 90.1267 53.0785 89.3534 52.3851C88.5801 51.6785 87.9734 50.8518 87.5334 49.9051C87.0934 48.9585 86.8734 47.9451 86.8734 46.8651C86.8734 45.7318 87.0934 44.6785 87.5334 43.7051C87.9734 42.7318 88.5734 41.8851 89.3334 41.1651C90.1067 40.4451 91.0134 39.8785 92.0534 39.4651C93.0934 39.0518 94.2134 38.8451 95.4134 38.8451ZM95.4134 53.3451C96.1867 53.3451 96.8867 53.1985 97.5134 52.9051C98.1401 52.5985 98.6734 52.1718 99.1134 51.6251C99.5534 51.0651 99.8867 50.3918 100.113 49.6051C100.353 48.8051 100.473 47.9118 100.473 46.9251C100.473 45.8851 100.353 44.9518 100.113 44.1251C99.8867 43.2851 99.5534 42.5718 99.1134 41.9851C98.6734 41.3851 98.1401 40.9318 97.5134 40.6251C96.8867 40.3051 96.1867 40.1451 95.4134 40.1451C94.6267 40.1451 93.9201 40.3051 93.2934 40.6251C92.6801 40.9318 92.1534 41.3851 91.7134 41.9851C91.2734 42.5718 90.9334 43.2851 90.6934 44.1251C90.4667 44.9518 90.3534 45.8851 90.3534 46.9251C90.3534 47.9118 90.4667 48.8051 90.6934 49.6051C90.9334 50.3918 91.2734 51.0651 91.7134 51.6251C92.1534 52.1718 92.6801 52.5985 93.2934 52.9051C93.9201 53.1985 94.6267 53.3451 95.4134 53.3451ZM119.506 42.9051C119.506 44.0118 119.186 44.9385 118.546 45.6851C117.906 46.4318 116.886 46.9318 115.486 47.1851L120.126 52.5051C120.446 52.8785 120.826 53.1651 121.266 53.3651C121.706 53.5518 122.153 53.6451 122.606 53.6451V54.4451H117.866L112.906 48.3651C112.573 47.9651 112.28 47.6985 112.026 47.5651C111.786 47.4185 111.56 47.3451 111.346 47.3451V51.2651C111.346 51.7585 111.38 52.1651 111.446 52.4851C111.513 52.7918 111.646 53.0318 111.846 53.2051C112.046 53.3785 112.333 53.4985 112.706 53.5651C113.093 53.6185 113.606 53.6451 114.246 53.6451V54.4451H106.306V53.6451C106.746 53.6451 107.1 53.6185 107.366 53.5651C107.646 53.4985 107.86 53.3851 108.006 53.2251C108.166 53.0518 108.273 52.8185 108.326 52.5251C108.38 52.2185 108.406 51.8318 108.406 51.3651V42.1251C108.406 41.6585 108.386 41.2851 108.346 41.0051C108.306 40.7118 108.22 40.4851 108.086 40.3251C107.953 40.1518 107.76 40.0385 107.506 39.9851C107.266 39.9185 106.94 39.8718 106.526 39.8451V39.0451H113.446C115.38 39.0451 116.873 39.3851 117.926 40.0651C118.98 40.7451 119.506 41.6918 119.506 42.9051ZM111.346 46.1451H112.646C113.9 46.1451 114.833 45.9051 115.446 45.4251C116.073 44.9318 116.386 44.1251 116.386 43.0051C116.386 42.1518 116.126 41.4651 115.606 40.9451C115.086 40.4251 114.366 40.1651 113.446 40.1651H111.706C111.466 40.1651 111.346 40.2785 111.346 40.5051V46.1451ZM138.727 43.4451H137.867C137.827 42.7918 137.727 42.2518 137.567 41.8251C137.42 41.3851 137.207 41.0385 136.927 40.7851C136.647 40.5185 136.307 40.3385 135.907 40.2451C135.507 40.1385 135.04 40.0851 134.507 40.0851C133.987 40.0851 133.567 40.0985 133.247 40.1251C132.94 40.1385 132.7 40.1718 132.527 40.2251C132.367 40.2651 132.26 40.3251 132.207 40.4051C132.153 40.4851 132.127 40.5851 132.127 40.7051V51.1851C132.127 51.6118 132.153 51.9785 132.207 52.2851C132.273 52.5918 132.4 52.8451 132.587 53.0451C132.773 53.2318 133.047 53.3785 133.407 53.4851C133.767 53.5785 134.24 53.6318 134.827 53.6451V54.4451H126.447V53.6451C127.047 53.6318 127.527 53.5785 127.887 53.4851C128.247 53.3785 128.52 53.2318 128.707 53.0451C128.907 52.8451 129.033 52.5918 129.087 52.2851C129.153 51.9785 129.187 51.6118 129.187 51.1851V40.7051C129.187 40.5851 129.16 40.4851 129.107 40.4051C129.067 40.3251 128.973 40.2651 128.827 40.2251C128.68 40.1718 128.467 40.1385 128.187 40.1251C127.92 40.0985 127.567 40.0851 127.127 40.0851C126.647 40.0851 126.187 40.1118 125.747 40.1651C125.307 40.2051 124.92 40.3385 124.587 40.5651C124.253 40.7785 123.98 41.1118 123.767 41.5651C123.567 42.0051 123.46 42.6318 123.447 43.4451H122.667L122.867 39.0451H138.527L138.727 43.4451ZM156.269 43.4451H155.409C155.369 42.7918 155.269 42.2518 155.109 41.8251C154.963 41.3851 154.749 41.0385 154.469 40.7851C154.189 40.5185 153.849 40.3385 153.449 40.2451C153.049 40.1385 152.583 40.0851 152.049 40.0851C151.529 40.0851 151.109 40.0985 150.789 40.1251C150.483 40.1385 150.243 40.1718 150.069 40.2251C149.909 40.2651 149.803 40.3251 149.749 40.4051C149.696 40.4851 149.669 40.5851 149.669 40.7051V51.1851C149.669 51.6118 149.696 51.9785 149.749 52.2851C149.816 52.5918 149.943 52.8451 150.129 53.0451C150.316 53.2318 150.589 53.3785 150.949 53.4851C151.309 53.5785 151.783 53.6318 152.369 53.6451V54.4451H143.989V53.6451C144.589 53.6318 145.069 53.5785 145.429 53.4851C145.789 53.3785 146.063 53.2318 146.249 53.0451C146.449 52.8451 146.576 52.5918 146.629 52.2851C146.696 51.9785 146.729 51.6118 146.729 51.1851V40.7051C146.729 40.5851 146.703 40.4851 146.649 40.4051C146.609 40.3251 146.516 40.2651 146.369 40.2251C146.223 40.1718 146.009 40.1385 145.729 40.1251C145.463 40.0985 145.109 40.0851 144.669 40.0851C144.189 40.0851 143.729 40.1118 143.289 40.1651C142.849 40.2051 142.463 40.3385 142.129 40.5651C141.796 40.7785 141.523 41.1118 141.309 41.5651C141.109 42.0051 141.003 42.6318 140.989 43.4451H140.209L140.409 39.0451H156.069L156.269 43.4451ZM163.252 45.9251C164.106 45.9251 164.792 45.8985 165.312 45.8451C165.832 45.7918 166.232 45.6851 166.512 45.5251C166.806 45.3518 167.012 45.1051 167.132 44.7851C167.252 44.4651 167.346 44.0318 167.412 43.4851H168.152V49.3451H167.412C167.332 48.8118 167.226 48.3851 167.092 48.0651C166.959 47.7451 166.746 47.5051 166.452 47.3451C166.159 47.1718 165.759 47.0651 165.252 47.0251C164.759 46.9718 164.092 46.9451 163.252 46.9451V51.0651C163.252 51.4918 163.306 51.8518 163.412 52.1451C163.532 52.4385 163.726 52.6785 163.992 52.8651C164.259 53.0385 164.612 53.1651 165.052 53.2451C165.492 53.3118 166.032 53.3451 166.672 53.3451C167.432 53.3451 168.072 53.2918 168.592 53.1851C169.126 53.0785 169.566 52.8918 169.912 52.6251C170.259 52.3585 170.539 52.0051 170.752 51.5651C170.966 51.1118 171.146 50.5451 171.292 49.8651H172.092L171.772 54.4451H158.212V53.6451C158.652 53.6318 159.012 53.5918 159.292 53.5251C159.572 53.4585 159.786 53.3451 159.932 53.1851C160.079 53.0251 160.179 52.7985 160.232 52.5051C160.286 52.2118 160.312 51.8318 160.312 51.3651V42.1251C160.312 41.6585 160.286 41.2851 160.232 41.0051C160.192 40.7118 160.106 40.4851 159.972 40.3251C159.839 40.1518 159.646 40.0385 159.392 39.9851C159.152 39.9185 158.832 39.8718 158.432 39.8451V39.0451H171.072L171.212 42.9651H170.352C170.272 42.4051 170.146 41.9451 169.972 41.5851C169.799 41.2118 169.559 40.9185 169.252 40.7051C168.946 40.4785 168.546 40.3251 168.052 40.2451C167.572 40.1518 166.979 40.1051 166.272 40.1051H164.012C163.666 40.1051 163.452 40.1518 163.372 40.2451C163.292 40.3251 163.252 40.5251 163.252 40.8451V45.9251ZM194.578 54.4451H180.798V53.6451C181.238 53.6318 181.598 53.5918 181.878 53.5251C182.158 53.4585 182.372 53.3451 182.518 53.1851C182.665 53.0251 182.765 52.7985 182.818 52.5051C182.872 52.2118 182.898 51.8318 182.898 51.3651V42.1251C182.898 41.6585 182.872 41.2851 182.818 41.0051C182.778 40.7118 182.692 40.4851 182.558 40.3251C182.425 40.1518 182.232 40.0385 181.978 39.9851C181.738 39.9185 181.418 39.8718 181.018 39.8451V39.0451H187.918V39.8451C187.465 39.8585 187.098 39.8985 186.818 39.9651C186.552 40.0318 186.345 40.1518 186.198 40.3251C186.052 40.4985 185.952 40.7385 185.898 41.0451C185.858 41.3518 185.838 41.7585 185.838 42.2651V50.6451C185.838 51.2051 185.892 51.6651 185.998 52.0251C186.118 52.3718 186.318 52.6451 186.598 52.8451C186.878 53.0318 187.252 53.1651 187.718 53.2451C188.185 53.3118 188.765 53.3451 189.458 53.3451C190.232 53.3451 190.878 53.2985 191.398 53.2051C191.918 53.1118 192.352 52.9385 192.698 52.6851C193.058 52.4185 193.345 52.0651 193.558 51.6251C193.772 51.1851 193.952 50.6118 194.098 49.9051H194.898L194.578 54.4451ZM206.216 49.7851H200.556C199.929 51.1985 199.616 52.1785 199.616 52.7251C199.616 53.1251 199.763 53.3785 200.056 53.4851C200.363 53.5918 200.816 53.6451 201.416 53.6451V54.4451H195.936V53.6451C196.256 53.6051 196.529 53.5518 196.756 53.4851C196.996 53.4185 197.203 53.3251 197.376 53.2051C197.563 53.0851 197.723 52.9318 197.856 52.7451C197.989 52.5451 198.116 52.3051 198.236 52.0251L203.496 38.8451H204.976L209.756 50.5251C210.036 51.2051 210.269 51.7385 210.456 52.1251C210.656 52.5118 210.863 52.8118 211.076 53.0251C211.303 53.2251 211.556 53.3651 211.836 53.4451C212.129 53.5251 212.503 53.5851 212.956 53.6251V54.4451H205.396V53.6251C206.036 53.5985 206.496 53.5318 206.776 53.4251C207.056 53.3185 207.196 53.1051 207.196 52.7851C207.196 52.5985 207.149 52.3585 207.056 52.0651C206.963 51.7718 206.836 51.4118 206.676 50.9851L206.216 49.7851ZM201.016 48.5851H205.776L203.476 42.5251H203.396L201.016 48.5851ZM214.448 49.3451H215.228C215.415 50.6118 215.921 51.6118 216.748 52.3451C217.575 53.0651 218.595 53.4251 219.808 53.4251C220.301 53.4251 220.755 53.3651 221.168 53.2451C221.581 53.1251 221.935 52.9585 222.228 52.7451C222.521 52.5185 222.748 52.2585 222.908 51.9651C223.068 51.6585 223.148 51.3185 223.148 50.9451C223.148 50.6251 223.095 50.3518 222.988 50.1251C222.895 49.8851 222.708 49.6585 222.428 49.4451C222.148 49.2185 221.761 48.9918 221.268 48.7651C220.788 48.5385 220.161 48.2785 219.388 47.9851C217.828 47.3851 216.675 46.6918 215.928 45.9051C215.181 45.1051 214.808 44.1651 214.808 43.0851C214.808 42.4585 214.928 41.8851 215.168 41.3651C215.408 40.8451 215.741 40.3985 216.168 40.0251C216.608 39.6518 217.128 39.3651 217.728 39.1651C218.341 38.9518 219.015 38.8451 219.748 38.8451C220.428 38.8451 221.068 38.9518 221.668 39.1651C222.268 39.3785 222.861 39.6985 223.448 40.1251L223.808 39.1251H224.288L224.508 43.4451H223.728C223.408 42.3518 222.908 41.5185 222.228 40.9451C221.548 40.3585 220.761 40.0651 219.868 40.0651C219.041 40.0651 218.368 40.2718 217.848 40.6851C217.341 41.0851 217.088 41.6051 217.088 42.2451C217.088 42.5251 217.135 42.7785 217.228 43.0051C217.321 43.2185 217.495 43.4251 217.748 43.6251C218.001 43.8251 218.348 44.0318 218.788 44.2451C219.228 44.4451 219.795 44.6718 220.488 44.9251C221.421 45.2851 222.215 45.6518 222.868 46.0251C223.535 46.3851 224.075 46.7785 224.488 47.2051C224.915 47.6185 225.228 48.0585 225.428 48.5251C225.628 48.9918 225.728 49.5051 225.728 50.0651C225.728 50.7451 225.581 51.3651 225.288 51.9251C224.995 52.4851 224.581 52.9651 224.048 53.3651C223.528 53.7651 222.901 54.0785 222.168 54.3051C221.448 54.5318 220.648 54.6451 219.768 54.6451C218.968 54.6451 218.248 54.5385 217.608 54.3251C216.968 54.0985 216.308 53.7385 215.628 53.2451L215.228 54.4451H214.748L214.448 49.3451ZM233.37 45.9251C234.223 45.9251 234.91 45.8985 235.43 45.8451C235.95 45.7918 236.35 45.6851 236.63 45.5251C236.923 45.3518 237.13 45.1051 237.25 44.7851C237.37 44.4651 237.463 44.0318 237.53 43.4851H238.27V49.3451H237.53C237.45 48.8118 237.343 48.3851 237.21 48.0651C237.076 47.7451 236.863 47.5051 236.57 47.3451C236.276 47.1718 235.876 47.0651 235.37 47.0251C234.876 46.9718 234.21 46.9451 233.37 46.9451V51.0651C233.37 51.4918 233.423 51.8518 233.53 52.1451C233.65 52.4385 233.843 52.6785 234.11 52.8651C234.376 53.0385 234.73 53.1651 235.17 53.2451C235.61 53.3118 236.15 53.3451 236.79 53.3451C237.55 53.3451 238.19 53.2918 238.71 53.1851C239.243 53.0785 239.683 52.8918 240.03 52.6251C240.376 52.3585 240.656 52.0051 240.87 51.5651C241.083 51.1118 241.263 50.5451 241.41 49.8651H242.21L241.89 54.4451H228.33V53.6451C228.77 53.6318 229.13 53.5918 229.41 53.5251C229.69 53.4585 229.903 53.3451 230.05 53.1851C230.196 53.0251 230.296 52.7985 230.35 52.5051C230.403 52.2118 230.43 51.8318 230.43 51.3651V42.1251C230.43 41.6585 230.403 41.2851 230.35 41.0051C230.31 40.7118 230.223 40.4851 230.09 40.3251C229.956 40.1518 229.763 40.0385 229.51 39.9851C229.27 39.9185 228.95 39.8718 228.55 39.8451V39.0451H241.19L241.33 42.9651H240.47C240.39 42.4051 240.263 41.9451 240.09 41.5851C239.916 41.2118 239.676 40.9185 239.37 40.7051C239.063 40.4785 238.663 40.3251 238.17 40.2451C237.69 40.1518 237.096 40.1051 236.39 40.1051H234.13C233.783 40.1051 233.57 40.1518 233.49 40.2451C233.41 40.3251 233.37 40.5251 233.37 40.8451V45.9251ZM257.803 42.9051C257.803 44.0118 257.483 44.9385 256.843 45.6851C256.203 46.4318 255.183 46.9318 253.783 47.1851L258.423 52.5051C258.743 52.8785 259.123 53.1651 259.563 53.3651C260.003 53.5518 260.45 53.6451 260.903 53.6451V54.4451H256.163L251.203 48.3651C250.87 47.9651 250.576 47.6985 250.323 47.5651C250.083 47.4185 249.856 47.3451 249.643 47.3451V51.2651C249.643 51.7585 249.676 52.1651 249.743 52.4851C249.81 52.7918 249.943 53.0318 250.143 53.2051C250.343 53.3785 250.63 53.4985 251.003 53.5651C251.39 53.6185 251.903 53.6451 252.543 53.6451V54.4451H244.603V53.6451C245.043 53.6451 245.396 53.6185 245.663 53.5651C245.943 53.4985 246.156 53.3851 246.303 53.2251C246.463 53.0518 246.57 52.8185 246.623 52.5251C246.676 52.2185 246.703 51.8318 246.703 51.3651V42.1251C246.703 41.6585 246.683 41.2851 246.643 41.0051C246.603 40.7118 246.516 40.4851 246.383 40.3251C246.25 40.1518 246.056 40.0385 245.803 39.9851C245.563 39.9185 245.236 39.8718 244.823 39.8451V39.0451H251.743C253.676 39.0451 255.17 39.3851 256.223 40.0651C257.276 40.7451 257.803 41.6918 257.803 42.9051ZM249.643 46.1451H250.943C252.196 46.1451 253.13 45.9051 253.743 45.4251C254.37 44.9318 254.683 44.1251 254.683 43.0051C254.683 42.1518 254.423 41.4651 253.903 40.9451C253.383 40.4251 252.663 40.1651 251.743 40.1651H250.003C249.763 40.1651 249.643 40.2785 249.643 40.5051V46.1451Z" fill="black"/>
<defs>
<filter id="filter0_dddddd_49_18" x="-78.7379" y="-105.115" width="298.229" height="301.286" filterUnits="userSpaceOnUse" color-interpolation-filters="sRGB">
<feFlood flood-opacity="0" result="BackgroundImageFix"/>
<feColorMatrix in="SourceAlpha" type="matrix" values="0 0 0 0 0 0 0 0 0 0 0 0 0 0 0 0 0 0 127 0" result="hardAlpha"/>
<feOffset/>
<feGaussianBlur stdDeviation="1.5589"/>
<feColorMatrix type="matrix" values="0 0 0 0 0.690196 0 0 0 0 0.690196 0 0 0 0 0.690196 0 0 0 1 0"/>
<feBlend mode="normal" in2="BackgroundImageFix" result="effect1_dropShadow_49_18"/>
<feColorMatrix in="SourceAlpha" type="matrix" values="0 0 0 0 0 0 0 0 0 0 0 0 0 0 0 0 0 0 127 0" result="hardAlpha"/>
<feOffset/>
<feGaussianBlur stdDeviation="3.1178"/>
<feColorMatrix type="matrix" values="0 0 0 0 0.690196 0 0 0 0 0.690196 0 0 0 0 0.690196 0 0 0 1 0"/>
<feBlend mode="normal" in2="effect1_dropShadow_49_18" result="effect2_dropShadow_49_18"/>
<feColorMatrix in="SourceAlpha" type="matrix" values="0 0 0 0 0 0 0 0 0 0 0 0 0 0 0 0 0 0 127 0" result="hardAlpha"/>
<feOffset/>
<feGaussianBlur stdDeviation="10.9123"/>
<feColorMatrix type="matrix" values="0 0 0 0 0.690196 0 0 0 0 0.690196 0 0 0 0 0.690196 0 0 0 1 0"/>
<feBlend mode="normal" in2="effect2_dropShadow_49_18" result="effect3_dropShadow_49_18"/>
<feColorMatrix in="SourceAlpha" type="matrix" values="0 0 0 0 0 0 0 0 0 0 0 0 0 0 0 0 0 0 127 0" result="hardAlpha"/>
<feOffset/>
<feGaussianBlur stdDeviation="21.8246"/>
<feColorMatrix type="matrix" values="0 0 0 0 0.690196 0 0 0 0 0.690196 0 0 0 0 0.690196 0 0 0 1 0"/>
<feBlend mode="normal" in2="effect3_dropShadow_49_18" result="effect4_dropShadow_49_18"/>
<feColorMatrix in="SourceAlpha" type="matrix" values="0 0 0 0 0 0 0 0 0 0 0 0 0 0 0 0 0 0 127 0" result="hardAlpha"/>
<feOffset/>
<feGaussianBlur stdDeviation="37.4136"/>
<feColorMatrix type="matrix" values="0 0 0 0 0.690196 0 0 0 0 0.690196 0 0 0 0 0.690196 0 0 0 1 0"/>
<feBlend mode="normal" in2="effect4_dropShadow_49_18" result="effect5_dropShadow_49_18"/>
<feColorMatrix in="SourceAlpha" type="matrix" values="0 0 0 0 0 0 0 0 0 0 0 0 0 0 0 0 0 0 127 0" result="hardAlpha"/>
<feOffset/>
<feGaussianBlur stdDeviation="65.4738"/>
<feColorMatrix type="matrix" values="0 0 0 0 0.690196 0 0 0 0 0.690196 0 0 0 0 0.690196 0 0 0 1 0"/>
<feBlend mode="normal" in2="effect5_dropShadow_49_18" result="effect6_dropShadow_49_18"/>
<feBlend mode="normal" in="SourceGraphic" in2="effect6_dropShadow_49_18" result="shape"/>
</filter>
</defs>
</svg>
